<svg class="nc-icon glyph" xmlns="http://www.w3.org/2000/svg" xmlns:xlink="http://www.w3.org/1999/xlink" x="0px" y="0px" width="16px" height="16px" viewBox="0 0 16 16"><g><path fill="#538bd4" d="M1,5h11.6l-1.3,1.3c-0.4,0.4-0.4,1,0,1.4C11.5,7.9,11.7,8,12,8s0.5-0.1,0.7-0.3l3-3c0.4-0.4,0.4-1,0-1.4
	l-3-3c-0.4-0.4-1-0.4-1.4,0s-0.4,1,0,1.4L12.6,3H1C0.4,3,0,3.4,0,4S0.4,5,1,5z"></path>
<path data-color="color-2" fill="#538bd4" d="M15,11H3.4l1.3-1.3c0.4-0.4,0.4-1,0-1.4s-1-0.4-1.4,0l-3,3c-0.4,0.4-0.4,1,0,1.4l3,3
	C3.5,15.9,3.7,16,4,16s0.5-0.1,0.7-0.3c0.4-0.4,0.4-1,0-1.4L3.4,13H15c0.6,0,1-0.4,1-1S15.6,11,15,11z"></path></g></svg>