<?xml version="1.0" encoding="utf-8"?>
<!-- Generator: Adobe Illustrator 19.1.0, SVG Export Plug-In . SVG Version: 6.00 Build 0)  -->
<svg version="1.1" id="Layer_1" xmlns="http://www.w3.org/2000/svg" xmlns:xlink="http://www.w3.org/1999/xlink" x="0px" y="0px"
	 viewBox="0 0 476.1 81.1" style="enable-background:new 0 0 476.1 81.1;" xml:space="preserve">
<style type="text/css">
	.st0{fill:none;stroke:#538BD4;stroke-width:6;stroke-linecap:round;stroke-miterlimit:10;}
	.st1{fill:#538BD4;}
</style>
<line class="st0" x1="16.2" y1="62.1" x2="59.5" y2="18.7"/>
<line class="st0" x1="60.3" y1="18.6" x2="105.3" y2="18.6"/>
<line class="st0" x1="64.3" y1="39.6" x2="104.3" y2="39.6"/>
<line class="st0" x1="64.3" y1="61.6" x2="104.3" y2="61.6"/>
<g>
	<path class="st1" d="M183.9,34.6l-2.4-6.2h-14.7l-2.4,6.2h-6.4l12.6-32h7l12.6,32H183.9z M174.2,8.2l-5.8,15.3h11.5L174.2,8.2z"/>
	<path class="st1" d="M193.3,34.6v-32h5.6v27.1H213v4.9H193.3z"/>
	<path class="st1" d="M218,34.6v-32h21.9v4.9h-16.3v8.3h16v4.9h-16v8.9h16.3v4.9H218z"/>
	<path class="st1" d="M267.1,34.6l-9-12.5l-9,12.5h-6.7l12-16.4L243.2,2.6h6.7l8.3,11.7l8.2-11.7h6.8l-11.3,15.6l12,16.5H267.1z"/>
	<path class="st1" d="M299.9,34.6l-2.4-6.2h-14.7l-2.4,6.2h-6.4l12.6-32h7l12.6,32H299.9z M290.2,8.2l-5.8,15.3h11.5L290.2,8.2z"/>
	<path class="st1" d="M332,34.6l-16.7-22.9v22.9h-5.6v-32h5.8l16.4,22.2V2.6h5.6v32H332z"/>
	<path class="st1" d="M344.3,34.6v-32h11.9c10,0,16.8,6.6,16.8,16c0,9.5-6.7,16-16.7,16H344.3z M367.2,18.6c0-6.1-3.8-11-10.9-11
		h-6.3v22.1h6.3C363.1,29.7,367.2,24.7,367.2,18.6z"/>
	<path class="st1" d="M396.6,34.6l-7.1-12H384v12h-5.6v-32h14.1c6.3,0,10.5,4.1,10.5,10c0,5.7-3.7,8.8-7.6,9.4l7.9,12.6H396.6z
		 M397.2,12.6c0-3.1-2.3-5-5.5-5H384v10.2h7.7C394.9,17.7,397.2,15.7,397.2,12.6z"/>
	<path class="st1" d="M408.5,34.6v-32h5.6v32H408.5z"/>
	<path class="st1" d="M443.4,34.6l-2.4-6.2h-14.7l-2.4,6.2h-6.4l12.6-32h7l12.6,32H443.4z M433.7,8.2L428,23.5h11.5L433.7,8.2z"/>
	<path class="st1" d="M160.4,77.8v-24h3v21.3h11.2v2.7H160.4z"/>
	<path class="st1" d="M178.5,77.8v-24h3v24H178.5z"/>
	<path class="st1" d="M187.1,77.8v-24h10.7c4.2,0,6.7,2.5,6.7,6.1c0,3-2,5-4.2,5.5c2.6,0.4,4.7,3,4.7,5.9c0,3.9-2.6,6.5-6.9,6.5
		H187.1z M201.5,60.3c0-2.2-1.4-3.9-4.1-3.9h-7.2v7.7h7.2C200,64.2,201.5,62.5,201.5,60.3z M201.9,71c0-2.2-1.5-4.1-4.4-4.1h-7.4
		v8.3h7.4C200.3,75.1,201.9,73.6,201.9,71z"/>
	<path class="st1" d="M223.7,77.8l-6.1-9.5h-4.8v9.5h-3v-24h9.6c4.4,0,7.6,2.8,7.6,7.2c0,4.3-3,6.7-6.3,7l6.5,9.8H223.7z M223.9,61
		c0-2.7-2-4.6-4.8-4.6h-6.3v9.2h6.3C221.9,65.6,223.9,63.7,223.9,61z"/>
	<path class="st1" d="M248.8,77.8l-2.1-5.4h-12l-2.1,5.4h-3.4l9.7-24h3.7l9.6,24H248.8z M240.7,56.8l-5.1,13h10.2L240.7,56.8z"/>
	<path class="st1" d="M269.3,77.8l-6.1-9.5h-4.8v9.5h-3v-24h9.6c4.4,0,7.6,2.8,7.6,7.2c0,4.3-3,6.7-6.3,7l6.5,9.8H269.3z M269.5,61
		c0-2.7-2-4.6-4.8-4.6h-6.3v9.2h6.3C267.5,65.6,269.5,63.7,269.5,61z"/>
	<path class="st1" d="M277.3,77.8v-24h3v24H277.3z"/>
	<path class="st1" d="M303.1,77.8l-2.1-5.4h-12l-2.1,5.4h-3.4l9.7-24h3.7l9.6,24H303.1z M295,56.8l-5.1,13h10.2L295,56.8z"/>
	<path class="st1" d="M326.6,77.8l-14-19.1v19.1h-3v-24h3.1l13.8,18.8V53.8h3v24H326.6z"/>
</g>
</svg>
