<svg class="nc-icon glyph" xmlns="http://www.w3.org/2000/svg" xmlns:xlink="http://www.w3.org/1999/xlink" x="0px" y="0px" width="48px" height="48px" viewBox="0 0 48 48"><g>
<path data-color="color-2" fill="#8e8e90" d="M38,9H10C9.4,9,9,8.6,9,8s0.4-1,1-1h28c0.6,0,1,0.4,1,1S38.6,9,38,9z"></path>
<path data-color="color-2" fill="#8e8e90" d="M32,3H16c-0.6,0-1-0.4-1-1s0.4-1,1-1h16c0.6,0,1,0.4,1,1S32.6,3,32,3z"></path>
<path fill="#8e8e90" d="M42,13H6c-0.6,0-1,0.4-1,1v32c0,0.6,0.4,1,1,1h36c0.6,0,1-0.4,1-1V14C43,13.4,42.6,13,42,13z M33,28
	c0,0.6-0.4,1-1,1H16c-0.6,0-1-0.4-1-1v-4c0-0.6,0.4-1,1-1s1,0.4,1,1v3h14v-3c0-0.6,0.4-1,1-1s1,0.4,1,1V28z"></path>
</g></svg>